inDegrees=no
num_controls=7
num_derivatives=13
num_iterations=163
num_multipliers=7
num_parameters=0
num_slacks=7
num_states=26
objective=5.348858
objective_accelerations=0.719637
objective_balance=0.022810
objective_effort=0.176028
objective_height=4.311911
objective_ligament=0.118473
solver_duration=1800.951171
status=Solve_Succeeded
success=true
DataType=double
version=3
OpenSimVersion=4.4-2022-07-23-0e9fedc
endheader
time	/jointset/ground_pelvis/pelvis_tilt/value	/jointset/ground_pelvis/pelvis_tx/value	/jointset/ground_pelvis/pelvis_ty/value	/jointset/hip_l/hip_flexion_l/value	/jointset/hip_l/hip_adduction_l/value	/jointset/hip_l/hip_rotation_l/value	/jointset/back/lumbar_extension/value	/jointset/patellofemoral_l/patellar_flexion_l/value	/jointset/knee_l/knee_flexion_l/value	/jointset/knee_l/knee_adduction_l/value	/jointset/knee_l/knee_rotation_l/value	/jointset/ankle_l/ankle_angle_l/value	/jointset/subtalar_l/subtalar_angle_l/value	/jointset/ground_pelvis/pelvis_tilt/speed	/jointset/ground_pelvis/pelvis_tx/speed	/jointset/ground_pelvis/pelvis_ty/speed	/jointset/hip_l/hip_flexion_l/speed	/jointset/hip_l/hip_adduction_l/speed	/jointset/hip_l/hip_rotation_l/speed	/jointset/back/lumbar_extension/speed	/jointset/patellofemoral_l/patellar_flexion_l/speed	/jointset/knee_l/knee_flexion_l/speed	/jointset/knee_l/knee_adduction_l/speed	/jointset/knee_l/knee_rotation_l/speed	/jointset/ankle_l/ankle_angle_l/speed	/jointset/subtalar_l/subtalar_angle_l/speed	/forceset/tau_hip_flexion_l	/forceset/tau_hip_adduction_l	/forceset/tau_hip_rotation_l	/forceset/tau_knee_flexion_l	/forceset/tau_ankle_angle_l	/forceset/tau_subtalar_angle_l	/forceset/tau_lumbar_extension	lambda_cid13_p0	lambda_cid13_p1	lambda_cid13_p2	lambda_cid13_p3	lambda_cid13_p4	lambda_cid13_p5	lambda_cid14_p0	/jointset/ground_pelvis/pelvis_tilt/accel	/jointset/ground_pelvis/pelvis_tx/accel	/jointset/ground_pelvis/pelvis_ty/accel	/jointset/hip_l/hip_flexion_l/accel	/jointset/hip_l/hip_adduction_l/accel	/jointset/hip_l/hip_rotation_l/accel	/jointset/back/lumbar_extension/accel	/jointset/patellofemoral_l/patellar_flexion_l/accel	/jointset/knee_l/knee_flexion_l/accel	/jointset/knee_l/knee_adduction_l/accel	/jointset/knee_l/knee_rotation_l/accel	/jointset/ankle_l/ankle_angle_l/accel	/jointset/subtalar_l/subtalar_angle_l/accel	gamma_cid13_p0	gamma_cid13_p1	gamma_cid13_p2	gamma_cid13_p3	gamma_cid13_p4	gamma_cid13_p5	gamma_cid14_p0
1	-0.4604844157338022	0.0009844801447767958	0.6000129432516316	1.688783253555922	-0.3484967723460816	0.1342454944738564	-0.4363316314548997	1.490029238318387	1.490029238318385	0.05273175880575352	-0.1745327172224774	0.4347659137018359	0.2460047000688961	-0.1401903836953627	-0.001478000649670978	0.03280188195488707	0.02794793103600943	0.001532491984909377	-0.06385231354273672	2.22839709368059e-06	-0.1549742342960353	-0.1549742342960443	0.004178738849332543	-3.045577833142278e-07	-0.05584820981720039	-0.03084247937210597	-0.2442184464578728	0.03191985454927645	-0.0105315448705639	-0.2777142782203005	-0.05305374940941163	0.01682710685716859	0.2111550965590992	-48.08956922990489	4.677381626110053	-5.099096057074487	7.292177864454304	-540.8745344978249	-73.62129174312916	-0.02387914506384677	1.590432462187832	0.1978431241580516	1.952593696645518	-6.534021901734231	-0.1960037124121553	-1.656002465746154	-0.02328155908463293	-5.481377871400389	-5.481377871400068	-0.6954931080335514	-0.03255917595487721	-1.008568642371169	-0.9104452299763046	-2.725931663053667e-09	-1.275395058749002e-07	-6.072364155446909e-09	-9.630276063051491e-09	-6.837944580306964e-09	-1.329668375548485e-07	-3.647413987777221e-09
1.01	-0.4618075401312047	0.0009795787395894715	0.6004383561657914	1.688737195302483	-0.3484905155878801	0.133525498887516	-0.4363317923054159	1.488205853214902	1.488205853214903	0.05273858657426522	-0.1745326607924433	0.4341570169749882	0.2456520006175087	-0.1244277138042991	0.0005023634638954669	0.05226981386965015	-0.03714198692874048	-0.0002747759718312145	-0.08013826720060248	-2.863744125773227e-05	-0.2096942641792353	-0.2096942641792396	-0.002806896633947116	9.970961559990029e-06	-0.06594372516429363	-0.03968774695289679	-0.2446172277606516	0.03202534473735968	-0.01059088598115269	-0.2766798862504075	-0.0534003581095379	0.01685934864904319	0.2113505875184229	-48.16585934627864	4.640320293978998	-5.051591064505281	7.240365021165342	-540.6389583617708	-73.44841517135953	-0.02389834918033976	1.570201670984542	0.1988263423856162	1.942257610551439	-6.493837496384162	-0.172129981061523	-1.613625172425128	0.007875062461593951	-5.466036066666937	-5.466036066666439	-0.6991723071738228	0.01756553561098003	-1.011939717415754	-0.8700906169084998	-3.719761280505696e-09	-1.622504673672399e-07	-1.334539468819946e-08	-1.638381608789389e-08	-1.13406402392328e-08	-1.581043549436954e-07	-5.713280687446929e-09
1.02	-0.462972834346012	0.0009946196330237241	0.601058121333431	1.688040765718889	-0.3485021398379966	0.1326428970932723	-0.4363320889825259	1.485835523708607	1.48583552370861	0.05267574328020259	-0.1745325526833142	0.433446785747362	0.2452111438713579	-0.108624347176479	0.002510459074644457	0.07167233265081642	-0.1021263349950423	-0.002043709678834036	-0.0963735551232035	-2.493693272432348e-05	-0.26436311485792	-0.2643631148579211	-0.009755473665171531	1.003127018339106e-05	-0.07611510997287957	-0.0484739383248098	-0.2450160090634237	0.03213083492544325	-0.01065022709174368	-0.2756454942805136	-0.05374696680966457	0.01689159044091811	0.2115460784777534	-48.2472812175959	4.60359904949568	-5.003502257165645	7.191264319578083	-540.5194963870765	-73.26967486100688	-0.02391941523230961	1.598571809539086	0.2033894235945903	1.939511069926155	-6.512907922044618	-0.188336862464649	-1.64586931869324	-0.01636828970744188	-5.471142030497318	-5.47114203049728	-0.6880814176225274	-0.03460221809895029	-1.023742534669662	-0.8986299882007879	-4.423082562025595e-09	-1.964540199272146e-07	-2.046651755601282e-08	-2.319278358273746e-08	-1.584345308989317e-08	-1.843906028595154e-07	-7.510204850624151e-09
1.03	-0.4639798929487256	0.001029902587024019	0.6018715008311284	1.686695200252886	-0.3485312223825677	0.1315982509873986	-0.4363322353643406	1.482918856736781	1.482918856736786	0.05254364132551855	-0.1745324798814366	0.4326343958531307	0.2446827677715177	-0.09278122218603513	0.004552988134768537	0.09098432659991972	-0.166951135229711	-0.003762402722231219	-0.1125414653002405	-4.154198844466771e-06	-0.3189523719032915	-0.3189523719032903	-0.01665482096033056	4.812992559794857e-06	-0.08638182116610156	-0.05718643149109497	-0.2450936908297854	0.03220666896032684	-0.01069021243040509	-0.2744836954264319	-0.05390891668831531	0.01697854384132716	0.2115261834096855	-48.23870314960563	4.519174943392263	-4.938461194062728	7.078938284556446	-540.0606753178573	-73.13155783888702	-0.02394821129542141	1.578104910036195	0.2057070669642081	1.924153417547166	-6.461923402893968	-0.1620684244433586	-1.600142075184419	0.01132934092825466	-5.450129529186955	-5.450129529186676	-0.689371884922269	0.01654195273647575	-1.03099006260272	-0.855291494916803	-5.123439472770674e-09	-2.306523948450222e-07	-2.758609034561251e-08	-3.000231666400962e-08	-2.034626713638757e-08	-2.106885725154067e-07	-9.304384702204509e-09
